<svg xmlns="http://www.w3.org/2000/svg" xmlns:xlink="http://www.w3.org/1999/xlink" version="1.1" width="100px" height="100px" viewBox="0,0,256,256"><g fill="#6e3bf3" fill-rule="nonzero" stroke="none" stroke-width="1" stroke-linecap="butt" stroke-linejoin="miter" stroke-miterlimit="10" stroke-dasharray="" stroke-dashoffset="0" font-family="none" font-weight="none" font-size="none" text-anchor="none" style="mix-blend-mode: normal"><g transform="scale(5.12,5.12)"><path d="M25,2c-12.683,0 -23,10.317 -23,23c0,12.683 10.317,23 23,23c12.683,0 23,-10.317 23,-23c0,-12.683 -10.317,-23 -23,-23zM25,34c3.532,0 6.58,-2.039 8.053,-5h4.313c-1.688,5.221 -6.583,9 -12.366,9c-7.18,0 -13,-5.82 -13,-13c0,-7.18 5.82,-13 13,-13c5.783,0 10.678,3.779 12.366,9h-4.313c-1.474,-2.961 -4.522,-5 -8.053,-5c-4.971,0 -9,4.029 -9,9c0,4.971 4.029,9 9,9z"/></g></g></svg>
