<?xml version="1.0" encoding="UTF-8" standalone="no"?><svg version="1.1" xmlns="http://www.w3.org/2000/svg" xmlns:xlink="http://www.w3.org/1999/xlink" width="50px" height="50px" viewBox="0,0,256,256"><g fill="#6e3bf3" fill-rule="nonzero" stroke="none" stroke-width="1" stroke-linecap="butt" stroke-linejoin="miter" stroke-miterlimit="10" stroke-dasharray="" stroke-dashoffset="0" font-family="none" font-weight="none" font-size="none" text-anchor="none" style="mix-blend-mode: normal"><g transform="scale(5.12,5.12)"><path d="M17.22656,46.58203c-0.12109,0 -0.24219,-0.01953 -0.35547,-0.0625c-8.89453,-3.36328 -14.87109,-12.01172 -14.87109,-21.51953c0,-12.68359 10.31641,-23 23,-23c12.68359,0 23,10.31641 23,23c0,9.50781 -5.97656,18.15625 -14.87109,21.51953c-0.24609,0.09375 -0.52344,0.08594 -0.76562,-0.02734c-0.24219,-0.10547 -0.42969,-0.30859 -0.52344,-0.55469l-4.94922,-13.10937c-0.19531,-0.51562 0.0625,-1.09375 0.58203,-1.28906c2.70703,-1.01953 4.52734,-3.64844 4.52734,-6.53906c0,-3.85937 -3.14062,-7 -7,-7c-3.85937,0 -7,3.14063 -7,7c0,2.89063 1.82031,5.51953 4.52734,6.53906c0.51953,0.19531 0.77734,0.77344 0.58203,1.28906l-4.94922,13.10547c-0.09375,0.25 -0.28125,0.44922 -0.52344,0.55859c-0.12891,0.0625 -0.26953,0.08984 -0.41016,0.08984z"></path></g></g></svg>