<?xml version="1.0" encoding="UTF-8" standalone="no"?><svg xmlns="http://www.w3.org/2000/svg" xmlns:xlink="http://www.w3.org/1999/xlink" viewBox="0,0,256,256" width="50px" height="50px"><g fill="#6e3bf3" fill-rule="nonzero" stroke="none" stroke-width="1" stroke-linecap="butt" stroke-linejoin="miter" stroke-miterlimit="10" stroke-dasharray="" stroke-dashoffset="0" font-family="none" font-weight="none" font-size="none" text-anchor="none" style="mix-blend-mode: normal"><g transform="scale(5.12,5.12)"><path d="M12.125,1.99805c-0.43898,0.01834 -0.81457,0.32104 -0.92578,0.74609l-9.16602,34.83203c-0.06779,0.25668 -0.03074,0.52977 0.10298,0.75911c0.13372,0.22934 0.35314,0.3961 0.60991,0.46354l34.83398,9.16797c0.25668,0.06779 0.52977,0.03074 0.75911,-0.10298c0.22934,-0.13372 0.3961,-0.35314 0.46354,-0.60991l9.16602,-34.83398c0.06779,-0.25668 0.03074,-0.52977 -0.10298,-0.75911c-0.13372,-0.22934 -0.35314,-0.3961 -0.60991,-0.46354l-34.83398,-9.16602c-0.09674,-0.02587 -0.19681,-0.03706 -0.29687,-0.0332zM21.5,19l9.5,2.5l-2.5,9.5l-9.5,-2.5z"></path></g></g></svg>